HIERARCHY
ROOT Hips
{
	OFFSET 0.00000 0.00000 0.00000
	CHANNELS 6 Xposition Yposition Zposition Zrotation Yrotation Xrotation 
	JOINT LHipJoint
	{
		OFFSET 0 0 0
		CHANNELS 3 Zrotation Yrotation Xrotation
		JOINT LeftUpLeg
		{
			OFFSET 1.40001 -1.72600 0.84541
			CHANNELS 3 Zrotation Yrotation Xrotation
			JOINT LeftLeg
			{
				OFFSET 2.34760 -6.44999 0.00000
				CHANNELS 3 Zrotation Yrotation Xrotation
				JOINT LeftFoot
				{
					OFFSET 2.50650 -6.88655 0.00000
					CHANNELS 3 Zrotation Yrotation Xrotation
					JOINT LeftToeBase
					{
						OFFSET 0.12464 -0.34243 1.95563
						CHANNELS 3 Zrotation Yrotation Xrotation
						End Site
						{
							OFFSET 0.00000 -0.00000 1.00479
						}
					}
				}
			}
		}
	}
	JOINT RHipJoint
	{
		OFFSET 0 0 0
		CHANNELS 3 Zrotation Yrotation Xrotation
		JOINT RightUpLeg
		{
			OFFSET -1.40958 -1.72600 0.84541
			CHANNELS 3 Zrotation Yrotation Xrotation
			JOINT RightLeg
			{
				OFFSET -2.37905 -6.53640 0.00000
				CHANNELS 3 Zrotation Yrotation Xrotation
				JOINT RightFoot
				{
					OFFSET -2.50470 -6.88163 0.00000
					CHANNELS 3 Zrotation Yrotation Xrotation
					JOINT RightToeBase
					{
						OFFSET -0.12236 -0.33619 1.81785
						CHANNELS 3 Zrotation Yrotation Xrotation
						End Site
						{
							OFFSET -0.00000 -0.00000 0.93746
						}
					}
				}
			}
		}
	}
	JOINT LowerBack
	{
		OFFSET 0 0 0
		CHANNELS 3 Zrotation Yrotation Xrotation
		JOINT Spine
		{
			OFFSET -0.02146 1.96915 0.26424
			CHANNELS 3 Zrotation Yrotation Xrotation
			JOINT Spine1
			{
				OFFSET 0.01522 1.99484 0.02086
				CHANNELS 3 Zrotation Yrotation Xrotation
				JOINT Neck
				{
					OFFSET 0 0 0
					CHANNELS 3 Zrotation Yrotation Xrotation
					JOINT Neck1
					{
						OFFSET -0.02954 1.71757 0.03505
						CHANNELS 3 Zrotation Yrotation Xrotation
						JOINT Head
						{
							OFFSET 0.04170 1.65781 -0.11024
							CHANNELS 3 Zrotation Yrotation Xrotation
							End Site
							{
								OFFSET 0.01600 1.81465 -0.05144
							}
						}
					}
				}
				JOINT LeftShoulder
				{
					OFFSET 0 0 0
					CHANNELS 3 Zrotation Yrotation Xrotation
					JOINT LeftArm
					{
						OFFSET 2.77679 1.60868 -0.78649
						CHANNELS 3 Zrotation Yrotation Xrotation
						JOINT LeftForeArm
						{
							OFFSET 4.62672 -0.00000 -0.00000
							CHANNELS 3 Zrotation Yrotation Xrotation
							JOINT LeftHand
							{
								OFFSET 3.11018 -0.00000 -0.00000
								CHANNELS 3 Zrotation Yrotation Xrotation
								JOINT LeftFingerBase
								{
									OFFSET 0 0 0
									CHANNELS 3 Zrotation Yrotation Xrotation
									JOINT LeftHandIndex1
									{
										OFFSET 0.74383 -0.00000 -0.00000
										CHANNELS 3 Zrotation Yrotation Xrotation
										End Site
										{
											OFFSET 0.59970 -0.00000 -0.00000
										}
									}
								}
								JOINT LThumb
								{
									OFFSET 0 0 0
									CHANNELS 3 Zrotation Yrotation Xrotation
									End Site
									{
										OFFSET 0.60885 -0.00000 0.60885
									}
								}
							}
						}
					}
				}
				JOINT RightShoulder
				{
					OFFSET 0 0 0
					CHANNELS 3 Zrotation Yrotation Xrotation
					JOINT RightArm
					{
						OFFSET -2.73247 1.63658 -0.74740
						CHANNELS 3 Zrotation Yrotation Xrotation
						JOINT RightForeArm
						{
							OFFSET -4.55919 -0.00000 -0.00000
							CHANNELS 3 Zrotation Yrotation Xrotation
							JOINT RightHand
							{
								OFFSET -3.22748 -0.00000 -0.00000
								CHANNELS 3 Zrotation Yrotation Xrotation
								JOINT RightFingerBase
								{
									OFFSET 0 0 0
									CHANNELS 3 Zrotation Yrotation Xrotation
									JOINT RightHandIndex1
									{
										OFFSET -0.70088 -0.00000 -0.00000
										CHANNELS 3 Zrotation Yrotation Xrotation
										End Site
										{
											OFFSET -0.56507 -0.00000 -0.00000
										}
									}
								}
								JOINT RThumb
								{
									OFFSET 0 0 0
									CHANNELS 3 Zrotation Yrotation Xrotation
									End Site
									{
										OFFSET -0.57370 -0.00000 0.57370
									}
								}
							}
						}
					}
				}
			}
		}
	}
}
MOTION
Frames: 14
Frame Time: .0083333
-0.5093 16.3636 -4.7413 1.6876 1.2545 15.1459 0.0000 0.0000 0.0000 -24.7126 -3.7691 -23.3569 3.1668 10.9603 32.1462 1.1462 -15.0402 -20.4442 0.0103 0.6542 1.7977 0.0000 0.0000 0.0000 15.4829 10.2216 -46.3266 -9.9288 -17.3696 59.2501 -0.5296 2.0044 -13.2027 -0.1398 2.4100 -6.6402 -5.1286 -1.4590 -12.5531 0.0422 -1.3293 -4.9783 2.7477 -0.6141 1.9198 -0.2837 -0.4320 -4.0125 1.8387 -0.7532 10.5317 0.6280 -0.2986 4.1738 -0.0000 -0.0000 0.0000 -85.5922 -1.0251 24.8196 13.3785 -21.8393 -2.5924 -0.0000 -0.0000 7.5955 17.3179 -15.4865 -4.7593 -7.1250 0.0000 -0.0000 -6.9432 13.8808 5.1132 -0.0000 -0.0000 0.0000 93.3316 -17.6943 9.1210 -11.9023 19.6579 -2.0693 0.0000 -0.0000 -2.6620 -22.8489 -33.7206 13.1658 7.1250 -0.0000 -0.0000 12.7694 -65.4690 -6.3621
-0.5115 16.3689 -4.5446 1.7026 1.7086 15.1267 0.0000 0.0000 0.0000 -24.7388 -3.2620 -22.3599 3.0597 10.7911 31.5786 1.1722 -15.5512 -20.7811 0.0068 0.5333 1.4655 0.0000 0.0000 0.0000 15.4518 10.3872 -46.7345 -9.0519 -16.8410 56.2696 -0.5672 1.8933 -13.7017 -0.0038 0.3986 -1.0953 -5.1414 -1.6090 -12.4449 0.1107 -1.5335 -4.9536 2.7988 -0.7153 1.9065 -0.3688 -0.4139 -4.0089 1.9432 -0.7327 10.5167 0.6790 -0.2871 4.1688 0.0000 0.0000 0.0000 -85.1112 -1.6070 26.7748 14.2139 -23.0397 -2.9113 -0.0000 -0.0000 5.8954 16.9575 -15.2445 -4.5839 -7.1250 0.0000 -0.0000 -7.1802 14.1652 5.2469 0.0000 0.0000 0.0000 93.5692 -17.6848 5.9202 -10.9975 18.2845 -1.7752 0.0000 -0.0000 -0.1596 -22.2546 -33.6549 12.7772 7.1250 -0.0000 -0.0000 13.4298 -65.2370 -6.6244
-0.5138 16.3716 -4.3465 1.6500 2.1943 15.0707 0.0000 0.0000 0.0000 -24.6872 -2.6287 -21.2554 2.9301 10.5810 30.8794 1.1816 -15.9961 -20.9845 0.0026 0.3303 0.9077 0.0000 0.0000 0.0000 15.6253 10.3712 -46.9970 -8.1465 -16.2259 53.0886 -0.5205 0.9246 -13.3408 -0.0048 -0.4463 1.2264 -5.1343 -1.7862 -12.4370 0.2226 -1.7688 -4.8379 2.8765 -0.8372 2.0471 -0.4042 -0.4241 -3.9724 1.9839 -0.7450 10.3539 0.6975 -0.2938 4.1038 0.0000 -0.0000 0.0000 -84.6292 -2.4184 28.5868 14.9549 -24.0832 -3.2075 -0.0000 -0.0000 4.2334 17.0595 -15.4083 -4.6612 -7.1250 0.0000 -0.0000 -7.1153 13.9868 5.2258 0.0000 -0.0000 0.0000 93.6780 -17.7086 3.0656 -10.2647 17.1526 -1.5521 0.0000 0.0000 2.1973 -21.6017 -34.1300 12.5256 7.1250 -0.0000 -0.0000 14.6379 -65.5133 -7.3250
-0.5170 16.3667 -4.1483 1.6353 2.6534 15.0082 0.0000 0.0000 0.0000 -24.6503 -1.8622 -20.1536 2.7907 10.3483 30.1122 1.1431 -16.7457 -20.9677 0.0083 0.5872 1.6135 0.0000 0.0000 0.0000 15.8940 10.2322 -47.1032 -7.2348 -15.5265 49.7569 -0.4864 -0.2944 -13.2862 -0.0158 0.8110 -2.2289 -5.1498 -1.9279 -12.4872 0.2926 -1.9489 -4.6818 2.9284 -0.9341 2.2566 -0.3545 -0.4910 -3.9598 1.9539 -0.8332 10.2000 0.6736 -0.3377 4.0469 -0.0000 0.0000 0.0000 -84.1005 -3.4695 30.3600 15.6198 -25.0025 -3.4837 -0.0000 -0.0000 2.6346 17.4833 -15.6733 -4.8637 -7.1250 0.0000 -0.0000 -6.8372 13.6715 5.0644 -0.0000 0.0000 0.0000 93.8018 -17.9048 0.5461 -9.7306 16.3171 -1.3983 0.0000 0.0000 4.2323 -21.0642 -34.5991 12.3364 7.1250 -0.0000 -0.0000 15.7222 -65.8107 -7.9871
-0.5207 16.3542 -3.9511 1.5736 2.9934 14.9116 0.0000 0.0000 0.0000 -24.5526 -1.0522 -19.0699 2.6624 10.1275 29.3905 1.1249 -17.3920 -21.0709 0.0161 0.8183 2.2489 0.0000 0.0000 0.0000 16.2081 10.1526 -47.0490 -6.3395 -14.7494 46.3294 -0.5025 -0.9860 -13.7840 -0.2132 2.9724 -8.2018 -5.0743 -1.9722 -12.4102 0.3035 -2.0188 -4.5927 2.8875 -0.9722 2.3128 -0.2241 -0.5791 -3.9101 1.9206 -0.9565 10.0881 0.6331 -0.3960 3.9976 -0.0000 -0.0000 0.0000 -83.4802 -4.2844 32.1639 16.3774 -26.0297 -3.8101 -0.0000 -0.0000 1.1075 18.1515 -15.7345 -5.0805 -7.1250 0.0000 -0.0000 -6.3900 13.5397 4.7466 -0.0000 -0.0000 0.0000 94.0639 -18.1018 -2.4714 -9.1765 15.4413 -1.2467 0.0000 0.0000 6.7033 -20.5318 -34.2243 11.8949 7.1250 -0.0000 -0.0000 15.9976 -65.3018 -7.9426
-0.5243 16.3449 -3.7547 1.4902 3.3632 14.8333 0.0000 0.0000 0.0000 -24.4030 -0.2307 -18.0523 2.5380 9.9067 28.6750 1.1131 -18.0144 -21.2212 0.0204 0.9229 2.5367 0.0000 0.0000 0.0000 16.4789 10.0551 -46.9339 -5.4773 -13.9019 42.8461 -0.5133 -1.2883 -14.0617 -0.4154 4.1373 -11.4631 -4.9887 -2.0287 -12.2320 0.3404 -2.1144 -4.5738 2.8680 -1.0188 2.2432 -0.1472 -0.6330 -3.8731 1.9649 -1.0381 10.0247 0.6303 -0.4320 3.9686 -0.0000 0.0000 0.0000 -82.9532 -4.8796 33.6708 17.2100 -27.1338 -4.1827 -0.0000 0.0000 -0.2158 18.6362 -15.5463 -5.1647 -7.1250 0.0000 -0.0000 -6.0574 13.6842 4.4781 -0.0000 0.0000 0.0000 94.3055 -18.3322 -5.7644 -8.6819 14.6520 -1.1183 0.0000 0.0000 9.4404 -19.9617 -33.6893 11.3909 7.1250 -0.0000 -0.0000 16.1720 -64.6322 -7.7805
-0.5303 16.3392 -3.5605 1.3176 3.7873 14.7896 0.0000 0.0000 0.0000 -24.0964 0.5026 -17.0815 2.4087 9.6699 27.9143 1.0686 -18.7480 -21.2127 0.0261 1.0433 2.8680 0.0000 0.0000 0.0000 16.7963 10.0153 -46.7395 -4.6597 -12.9901 39.3313 -0.5171 -1.4579 -14.1892 -0.5367 4.6940 -13.0378 -4.8744 -2.1240 -12.1158 0.4779 -2.2627 -4.4996 2.9275 -1.0946 2.2725 -0.1830 -0.6758 -3.9930 1.9896 -1.0960 10.0291 0.6421 -0.4601 3.9952 -0.0000 0.0000 0.0000 -82.6131 -5.6384 34.7205 17.9835 -28.1360 -4.5414 -0.0000 0.0000 -1.3109 18.9169 -15.4435 -5.2143 -7.1250 0.0000 -0.0000 -5.8645 13.7616 4.3243 -0.0000 0.0000 0.0000 94.3819 -18.5262 -8.9478 -8.2740 13.9960 -1.0174 0.0000 0.0000 12.0806 -19.5424 -33.4203 11.0618 7.1250 -0.0000 -0.0000 16.4163 -64.2607 -7.7594
-0.5391 16.3289 -3.3689 1.3714 4.1147 14.8002 0.0000 0.0000 0.0000 -24.0194 1.0874 -16.0721 2.2713 9.4098 27.0857 1.0082 -19.3565 -21.0687 0.0342 1.1940 3.2829 0.0000 0.0000 0.0000 16.8693 9.9672 -46.5578 -3.8963 -12.0211 35.8065 -0.5137 -1.3335 -14.0874 -0.6828 5.2830 -14.7176 -5.0512 -2.2087 -12.0717 0.5549 -2.3570 -4.4102 3.0934 -1.1439 2.3596 -0.1169 -0.7732 -3.9669 1.8854 -1.2181 9.8389 0.5894 -0.5240 3.9222 0.0000 0.0000 0.0000 -82.2289 -6.5170 35.8203 18.6466 -28.9772 -4.8585 -0.0000 0.0000 -2.3615 19.4248 -15.7152 -5.4561 -7.1250 0.0000 -0.0000 -5.5335 13.4236 4.1174 0.0000 0.0000 0.0000 94.4293 -18.5433 -12.6264 -7.7770 13.1908 -0.9006 0.0000 0.0000 15.2462 -19.3214 -32.8383 10.7650 7.1250 -0.0000 -0.0000 16.1621 -63.6449 -7.4040
-0.5459 16.3148 -3.1774 1.7065 4.5135 14.8001 0.0000 0.0000 0.0000 -24.2423 1.6296 -14.9130 2.1219 9.1155 26.1573 0.9782 -19.6824 -21.0135 0.0202 0.9181 2.5236 0.0000 0.0000 0.0000 16.6216 9.7595 -46.4872 -3.2046 -11.0191 32.3445 -0.4973 -0.8199 -13.6429 -0.7519 5.5384 -15.4507 -5.4523 -2.3412 -11.9772 0.5075 -2.4893 -4.3754 3.2524 -1.2088 2.3691 0.0868 -0.8642 -3.7641 1.7698 -1.3387 9.5795 0.5095 -0.5839 3.7887 0.0000 0.0000 0.0000 -81.7590 -7.2164 36.8772 19.3594 -29.8628 -5.2086 -0.0000 0.0000 -3.2426 19.9288 -15.8840 -5.6669 -7.1250 0.0000 -0.0000 -5.2026 13.1908 3.8945 0.0000 0.0000 0.0000 94.5693 -18.6080 -16.8277 -7.2924 12.3995 -0.7932 0.0000 0.0000 18.9695 -19.1853 -32.6561 10.6336 7.1250 -0.0000 -0.0000 16.1629 -63.4344 -7.3248
-0.5516 16.3027 -2.9790 1.7115 5.0774 14.7245 0.0000 0.0000 0.0000 -24.0708 2.2032 -13.5703 1.9546 8.7708 25.0809 1.0208 -19.6260 -21.2644 0.0001 -0.0609 -0.1672 0.0000 0.0000 0.0000 16.6733 9.5825 -46.3025 -2.6117 -10.0382 29.1004 -0.4793 -0.0214 -13.0884 -0.7965 5.6964 -15.9060 -5.4058 -2.4853 -11.8682 0.5430 -2.6909 -4.2965 3.2356 -1.3118 2.4120 0.1196 -0.9197 -3.7589 1.8046 -1.4156 9.3955 0.5114 -0.6207 3.7236 -0.0000 0.0000 0.0000 -81.3936 -7.8906 37.4785 20.1528 -30.8260 -5.6094 -0.0000 0.0000 -3.7213 20.2923 -15.8798 -5.7772 -7.1250 0.0000 -0.0000 -4.9585 13.1537 3.7143 -0.0000 0.0000 0.0000 94.6708 -18.7459 -20.4290 -6.9847 11.8940 -0.7285 0.0000 0.0000 22.1348 -18.8767 -32.8675 10.5123 7.1250 -0.0000 -0.0000 16.6947 -63.5545 -7.6195
-0.5540 16.2945 -2.7742 1.6488 5.7500 14.7675 0.0000 0.0000 0.0000 -23.7788 2.5435 -12.2293 1.7807 8.3935 23.9157 1.0188 -19.7306 -21.2959 0.0088 -0.6072 -1.6686 0.0000 0.0000 0.0000 16.8310 9.2489 -46.2169 -2.1160 -9.1037 26.1203 -0.4765 1.0913 -12.7064 -0.8535 5.8918 -16.4709 -5.2165 -2.6348 -11.9527 0.6008 -2.9051 -4.2387 3.1534 -1.4227 2.5341 -0.0510 -0.9923 -3.7400 1.9686 -1.5134 9.2663 0.5911 -0.6693 3.6793 -0.0000 0.0000 0.0000 -81.1069 -8.5601 38.0696 20.8831 -31.6916 -5.9884 -0.0000 0.0000 -4.1818 20.7162 -16.2208 -6.0306 -7.1250 0.0000 -0.0000 -4.6922 12.7457 3.5536 -0.0000 0.0000 0.0000 94.7600 -18.8884 -24.0320 -6.7375 11.4865 -0.6784 0.0000 0.0000 25.2450 -18.2999 -33.1100 10.2402 7.1250 -0.0000 -0.0000 17.5621 -63.6316 -8.0592
-0.5543 16.2884 -2.5682 1.9519 6.3364 14.8930 0.0000 0.0000 0.0000 -23.8745 2.6561 -10.8756 1.6156 8.0147 22.7587 0.9259 -20.0800 -20.8500 0.0040 -0.4063 -1.1163 0.0000 0.0000 0.0000 16.7116 8.6812 -46.2887 -1.7090 -8.2317 23.4201 -0.5124 2.5671 -12.8841 -0.4231 4.1748 -11.5689 -5.4353 -2.7900 -12.2147 0.5478 -3.0642 -4.1568 3.1848 -1.5084 2.7845 -0.0741 -1.0877 -3.8627 2.0537 -1.6505 9.3657 0.6170 -0.7328 3.7414 0.0000 0.0000 0.0000 -80.7922 -9.2441 38.8834 21.5185 -32.4285 -6.3257 -0.0000 0.0000 -5.0255 21.2241 -16.8239 -6.4133 -7.1250 0.0000 -0.0000 -4.3882 12.0480 3.3858 0.0000 0.0000 0.0000 94.8563 -18.8567 -28.7187 -6.3852 10.9030 -0.6100 0.0000 0.0000 29.2466 -18.1045 -33.0956 10.1218 7.1250 -0.0000 -0.0000 17.7707 -63.5661 -8.1307
-0.5606 16.2763 -2.3611 2.1882 6.7323 14.8976 0.0000 0.0000 0.0000 -23.9012 2.8213 -9.4084 1.4534 7.6202 21.5664 0.8603 -20.1600 -20.4593 0.0060 -0.5021 -1.3795 0.0000 0.0000 0.0000 16.7400 8.2459 -46.3566 -1.3998 -7.4845 21.1589 -0.5356 3.9636 -13.0423 -0.3527 3.8155 -10.5581 -5.7235 -2.9245 -12.3436 0.5420 -3.1967 -4.0749 3.3125 -1.5796 2.9670 0.0732 -1.1686 -3.9971 1.9605 -1.7645 9.4683 0.5548 -0.7863 3.8023 -0.0000 -0.0000 0.0000 -80.5367 -9.8486 39.3990 22.0718 -33.0581 -6.6250 -0.0000 0.0000 -5.7713 21.7768 -17.2915 -6.7719 -7.1250 0.0000 -0.0000 -4.0517 11.4830 3.1722 -0.0000 -0.0000 0.0000 94.8372 -18.8190 -33.7840 -6.0065 10.2730 -0.5404 0.0000 0.0000 33.6867 -18.3054 -32.6007 10.1063 7.1250 -0.0000 -0.0000 17.1137 -63.1497 -7.6541
-0.5597 16.2573 -2.1476 2.1906 7.1107 14.9508 0.0000 0.0000 0.0000 -23.7156 2.9654 -8.0304 1.3026 7.2303 20.3994 0.8269 -20.0797 -20.2019 0.0204 -0.9223 -2.5351 0.0000 0.0000 0.0000 17.3018 7.4985 -46.7821 -1.1712 -6.8695 19.3294 -0.4884 5.5604 -12.4742 -0.5185 4.6152 -12.8143 -5.6016 -3.0470 -12.4523 0.5816 -3.3688 -4.1390 3.2551 -1.6636 2.9722 0.1249 -1.1848 -3.8022 1.8865 -1.7805 9.4146 0.5213 -0.7971 3.7437 -0.0000 -0.0000 0.0000 -80.3949 -10.1588 39.4529 22.6652 -33.7206 -6.9515 -0.0000 0.0000 -6.0954 22.0727 -17.4346 -6.9272 -7.1250 0.0000 -0.0000 -3.8661 11.2922 3.0413 -0.0000 -0.0000 0.0000 94.8328 -19.1444 -37.2397 -5.8487 10.0096 -0.5126 0.0000 0.0000 36.7261 -18.3540 -32.7363 10.1712 7.1250 -0.0000 -0.0000 17.1748 -63.2915 -7.7394
